<svg xmlns="http://www.w3.org/2000/svg" xmlns:xlink="http://www.w3.org/1999/xlink" width="500" zoomAndPan="magnify" viewBox="0 0 375 374.999991" height="500" preserveAspectRatio="xMidYMid meet" version="1.2"><defs><clipPath id="3257c7a8a7"><path d="M 40.078125 41 L 333 41 L 333 107 L 40.078125 107 Z M 40.078125 41 "/></clipPath><clipPath id="6a63245d43"><path d="M 40.078125 29 L 334.828125 29 L 334.828125 118 L 40.078125 118 Z M 40.078125 29 "/></clipPath></defs><g id="816c715919"><path style="fill-rule:nonzero;fill:#000000;fill-opacity:1;stroke-width:1;stroke-linecap:butt;stroke-linejoin:miter;stroke:#000000;stroke-opacity:1;stroke-miterlimit:10;" d="M 363.999182 488.998966 L 148.001353 488.998966 C 147.505008 489.003831 147.018395 488.96005 146.531782 488.872487 C 146.045169 488.784925 145.573154 488.648716 145.110871 488.473591 C 144.648589 488.298466 144.205771 488.084425 143.787284 487.826602 C 143.36393 487.568779 142.969774 487.272039 142.604814 486.941248 C 142.239854 486.610456 141.904091 486.250477 141.607257 485.856445 C 141.305557 485.467279 141.042786 485.048925 140.82381 484.611112 C 140.599968 484.168435 140.419921 483.711164 140.278803 483.239299 C 140.142552 482.76257 140.050095 482.280977 140.001434 481.789654 L 106.940939 148.001391 C 106.882545 147.441963 106.887411 146.887401 106.950671 146.327974 C 107.009065 145.773411 107.130718 145.228578 107.305899 144.693474 C 107.481079 144.163234 107.709788 143.657317 107.996889 143.170859 C 108.279125 142.689265 108.605156 142.241724 108.984714 141.823369 C 109.359406 141.40988 109.777893 141.040172 110.230443 140.714244 C 110.68786 140.388317 111.169607 140.111036 111.685417 139.887265 C 112.19636 139.65863 112.726769 139.488369 113.276642 139.376484 C 113.826514 139.264599 114.381253 139.206224 114.940858 139.211088 L 397.098606 139.211088 C 397.658211 139.206224 398.21295 139.264599 398.762823 139.376484 C 399.312696 139.488369 399.843104 139.65863 400.354048 139.887265 C 400.869858 140.111036 401.351605 140.388317 401.809021 140.714244 C 402.261572 141.040172 402.680059 141.40988 403.054751 141.823369 C 403.434309 142.241724 403.76034 142.689265 404.047442 143.170859 C 404.329677 143.657317 404.558385 144.163234 404.733566 144.693474 C 404.908747 145.228578 405.0304 145.773411 405.088794 146.327974 C 405.152053 146.887401 405.15692 147.441963 405.098526 148.001391 L 371.930976 481.789654 C 371.882315 482.276112 371.789858 482.757706 371.653607 483.22957 C 371.517355 483.701435 371.337308 484.153841 371.118332 484.591654 C 370.89449 485.034331 370.636585 485.44782 370.339751 485.836987 C 370.042917 486.231018 369.71202 486.590998 369.351927 486.916925 C 368.986967 487.247716 368.597676 487.544456 368.179189 487.802279 C 367.765568 488.060102 367.327616 488.279008 366.8702 488.454133 C 366.412783 488.634123 365.940769 488.770331 365.459022 488.857893 C 364.977275 488.950321 364.490662 488.998966 363.999182 488.998966 Z M 155.30055 472.999351 L 356.729182 472.999351 L 388.261712 155.171787 L 123.738824 155.171787 Z M 155.30055 472.999351 " transform="matrix(0.802742,0,0,0.802998,-18.931968,-18.067451)"/><path style="fill-rule:nonzero;fill:#000000;fill-opacity:1;stroke-width:1;stroke-linecap:butt;stroke-linejoin:miter;stroke:#000000;stroke-opacity:1;stroke-miterlimit:10;" d="M 202.000811 442.999465 C 201.494733 442.999465 200.998388 442.955683 200.502042 442.863256 C 200.010563 442.770829 199.528816 442.629756 199.056801 442.444902 C 198.589653 442.264912 198.141969 442.036277 197.718615 441.768725 C 197.290396 441.501173 196.896239 441.194704 196.526413 440.849319 C 196.156587 440.508798 195.82569 440.134225 195.528856 439.7256 C 195.232022 439.321839 194.974117 438.888892 194.755141 438.436485 C 194.541032 437.979214 194.370717 437.512214 194.244198 437.025756 C 194.112812 436.534433 194.034954 436.04311 194.000891 435.542058 L 177.470644 193.747934 C 177.431715 193.222559 177.451179 192.702049 177.514439 192.176674 C 177.582565 191.656163 177.699352 191.145382 177.869666 190.64433 C 178.035115 190.148142 178.249225 189.671413 178.511996 189.214142 C 178.774767 188.756871 179.076467 188.328788 179.421962 187.929892 C 179.772324 187.535861 180.151882 187.175882 180.570369 186.854819 C 180.98399 186.533757 181.426808 186.251611 181.898823 186.018111 C 182.370838 185.784611 182.862317 185.599757 183.368394 185.458684 C 183.879338 185.322475 184.395148 185.234913 184.92069 185.200861 C 185.446232 185.161944 185.966909 185.181402 186.492451 185.244642 C 187.013127 185.312746 187.52407 185.429496 188.025282 185.599757 C 188.521627 185.765152 188.998508 185.979194 189.455925 186.241882 C 189.913341 186.504569 190.34156 186.806173 190.735717 187.156423 C 191.13474 187.501809 191.494833 187.881246 191.815998 188.2996 C 192.137163 188.71309 192.414532 189.160632 192.652973 189.632496 C 192.886547 190.099496 193.07146 190.590819 193.207712 191.101601 C 193.348829 191.607517 193.431554 192.123163 193.470483 192.648538 L 210.00073 434.418339 C 210.034793 434.943714 210.020195 435.469089 209.952069 435.9896 C 209.888809 436.51011 209.767156 437.020891 209.601707 437.517079 C 209.436259 438.018131 209.222149 438.49486 208.959378 438.947267 C 208.696607 439.404537 208.394907 439.832621 208.049412 440.226652 C 207.703916 440.620683 207.319492 440.980662 206.905871 441.301725 C 206.487384 441.622787 206.044566 441.900069 205.572551 442.133569 C 205.105402 442.367069 204.613923 442.551923 204.107845 442.692996 C 203.601768 442.829204 203.085958 442.916767 202.560416 442.950819 Z M 202.000811 442.999465 " transform="matrix(0.802742,0,0,0.802998,-18.931968,-18.067451)"/><path style="fill-rule:nonzero;fill:#000000;fill-opacity:1;stroke-width:1;stroke-linecap:butt;stroke-linejoin:miter;stroke:#000000;stroke-opacity:1;stroke-miterlimit:10;" d="M 256.000268 442.999465 C 255.474726 442.999465 254.95405 442.950819 254.43824 442.848662 C 253.92243 442.741642 253.426085 442.59084 252.939471 442.391392 C 252.452858 442.191944 251.990576 441.94385 251.55749 441.651975 C 251.119538 441.3601 250.715649 441.029308 250.340957 440.654735 C 249.971131 440.285027 249.640234 439.881267 249.348267 439.443454 C 249.056299 439.005642 248.808126 438.548371 248.608615 438.061912 C 248.409103 437.575454 248.258253 437.074402 248.156064 436.558756 C 248.04901 436.04311 248.000348 435.527464 248.000348 435.002089 L 248.000348 193.198236 C 248.000348 192.672861 248.04901 192.152351 248.156064 191.641569 C 248.258253 191.125923 248.409103 190.624871 248.608615 190.138413 C 248.808126 189.651955 249.056299 189.189819 249.348267 188.756871 C 249.640234 188.319059 249.971131 187.915298 250.340957 187.540725 C 250.715649 187.171017 251.119538 186.840225 251.55749 186.54835 C 251.990576 186.256475 252.452858 186.008382 252.939471 185.808934 C 253.426085 185.609486 253.92243 185.453819 254.43824 185.351663 C 254.95405 185.249507 255.474726 185.200861 256.000268 185.200861 C 256.52581 185.200861 257.046486 185.249507 257.562296 185.351663 C 258.078106 185.453819 258.574451 185.609486 259.061064 185.808934 C 259.547677 186.008382 260.00996 186.256475 260.443046 186.54835 C 260.880997 186.840225 261.284886 187.171017 261.654712 187.540725 C 262.029404 187.915298 262.360301 188.319059 262.652269 188.756871 C 262.944237 189.189819 263.19241 189.651955 263.391921 190.138413 C 263.591432 190.624871 263.742283 191.125923 263.844471 191.641569 C 263.94666 192.152351 264.000187 192.672861 264.000187 193.198236 L 264.000187 435.002089 C 264.000187 435.527464 263.94666 436.04311 263.844471 436.558756 C 263.742283 437.074402 263.591432 437.575454 263.391921 438.061912 C 263.19241 438.548371 262.944237 439.005642 262.652269 439.443454 C 262.360301 439.881267 262.029404 440.285027 261.654712 440.654735 C 261.284886 441.029308 260.880997 441.3601 260.443046 441.651975 C 260.00996 441.94385 259.547677 442.191944 259.061064 442.391392 C 258.574451 442.59084 258.078106 442.741642 257.562296 442.848662 C 257.046486 442.950819 256.52581 442.999465 256.000268 442.999465 Z M 256.000268 442.999465 " transform="matrix(0.802742,0,0,0.802998,-18.931968,-18.067451)"/><path style="fill-rule:nonzero;fill:#000000;fill-opacity:1;stroke-width:1;stroke-linecap:butt;stroke-linejoin:miter;stroke:#000000;stroke-opacity:1;stroke-miterlimit:10;" d="M 309.999725 442.999465 L 309.449852 442.999465 C 308.92431 442.965413 308.4085 442.87785 307.902423 442.741642 C 307.396345 442.605433 306.904866 442.420579 306.432851 442.182215 C 305.965702 441.948715 305.522884 441.671433 305.104397 441.350371 C 304.690776 441.029308 304.306352 440.674194 303.960856 440.275298 C 303.615361 439.881267 303.313661 439.453183 303.05089 439.000777 C 302.788119 438.543506 302.574009 438.066777 302.408561 437.565725 C 302.243112 437.069537 302.121459 436.558756 302.058199 436.038246 C 301.990073 435.517735 301.975475 434.99236 302.009538 434.47185 L 318.578714 192.702049 C 318.617643 192.176674 318.700368 191.656163 318.841485 191.150246 C 318.977737 190.639465 319.16265 190.148142 319.396224 189.676278 C 319.629799 189.204413 319.907168 188.761736 320.233199 188.343382 C 320.554364 187.925028 320.914457 187.54559 321.308614 187.200205 C 321.707637 186.849955 322.13099 186.54835 322.588406 186.285663 C 323.045823 186.022975 323.52757 185.808934 324.023915 185.638673 C 324.525127 185.473277 325.03607 185.356527 325.556746 185.288423 C 326.082289 185.220319 326.602965 185.205725 327.128507 185.239777 C 327.654049 185.278694 328.174725 185.366257 328.680803 185.502465 C 329.191746 185.638673 329.678359 185.828392 330.150374 186.061892 C 330.622389 186.295392 331.070073 186.572673 331.483694 186.8986 C 331.902181 187.219663 332.28174 187.579642 332.627235 187.978538 C 332.977596 188.372569 333.279296 188.800653 333.542068 189.257923 C 333.804839 189.715194 334.018948 190.196788 334.184397 190.692976 C 334.349845 191.194028 334.466632 191.704809 334.534758 192.225319 C 334.602884 192.750694 334.617483 193.276069 334.578554 193.801444 L 317.999645 435.508006 C 317.965582 436.013923 317.887724 436.51011 317.761204 436.996569 C 317.634685 437.487891 317.46437 437.959756 317.250261 438.417027 C 317.036151 438.869433 316.778246 439.302381 316.481412 439.711006 C 316.184578 440.119631 315.853681 440.494204 315.483855 440.83959 C 315.114029 441.184975 314.719872 441.491444 314.291653 441.76386 C 313.863433 442.031412 313.415749 442.260048 312.948601 442.444902 C 312.476586 442.629756 311.994839 442.765965 311.498494 442.863256 C 311.007014 442.955683 310.505803 442.999465 309.999725 442.999465 Z M 309.999725 442.999465 " transform="matrix(0.802742,0,0,0.802998,-18.931968,-18.067451)"/><g clip-rule="nonzero" clip-path="url(#3257c7a8a7)"><path style=" stroke:none;fill-rule:nonzero;fill:#000000;fill-opacity:1;" d="M 299.980469 106.535156 L 73.160156 106.535156 C 72.089844 106.535156 71.023438 106.480469 69.957031 106.375 C 68.890625 106.273438 67.835938 106.113281 66.785156 105.90625 C 65.738281 105.695312 64.699219 105.4375 63.675781 105.125 C 62.652344 104.816406 61.648438 104.457031 60.660156 104.046875 C 59.671875 103.636719 58.703125 103.179688 57.761719 102.675781 C 56.816406 102.171875 55.902344 101.621094 55.011719 101.027344 C 54.121094 100.433594 53.265625 99.796875 52.4375 99.117188 C 51.609375 98.4375 50.820312 97.71875 50.0625 96.964844 C 49.304688 96.207031 48.589844 95.414062 47.910156 94.585938 C 47.230469 93.761719 46.59375 92.902344 46 92.011719 C 45.40625 91.121094 44.855469 90.207031 44.351562 89.261719 C 43.847656 88.320312 43.390625 87.351562 42.980469 86.363281 C 42.570312 85.375 42.210938 84.367188 41.902344 83.34375 C 41.589844 82.320312 41.332031 81.285156 41.121094 80.234375 C 40.914062 79.183594 40.757812 78.128906 40.652344 77.0625 C 40.546875 75.996094 40.496094 74.929688 40.496094 73.859375 C 40.496094 72.789062 40.546875 71.722656 40.652344 70.65625 C 40.757812 69.59375 40.914062 68.535156 41.121094 67.484375 C 41.332031 66.4375 41.589844 65.398438 41.902344 64.375 C 42.210938 63.351562 42.570312 62.34375 42.980469 61.355469 C 43.390625 60.367188 43.847656 59.402344 44.351562 58.457031 C 44.855469 57.511719 45.40625 56.597656 46 55.707031 C 46.59375 54.816406 47.230469 53.957031 47.910156 53.132812 C 48.589844 52.304688 49.304688 51.511719 50.0625 50.753906 C 50.820312 50 51.609375 49.28125 52.4375 48.601562 C 53.265625 47.921875 54.121094 47.285156 55.011719 46.691406 C 55.902344 46.097656 56.816406 45.546875 57.761719 45.042969 C 58.703125 44.539062 59.671875 44.082031 60.660156 43.671875 C 61.648438 43.261719 62.652344 42.902344 63.675781 42.59375 C 64.699219 42.28125 65.738281 42.023438 66.785156 41.8125 C 67.835938 41.605469 68.890625 41.449219 69.957031 41.34375 C 71.023438 41.238281 72.089844 41.1875 73.160156 41.1875 L 299.980469 41.1875 C 301.050781 41.1875 302.117188 41.238281 303.183594 41.34375 C 304.246094 41.449219 305.304688 41.605469 306.355469 41.8125 C 307.402344 42.023438 308.441406 42.28125 309.464844 42.59375 C 310.488281 42.902344 311.492188 43.261719 312.480469 43.671875 C 313.46875 44.082031 314.4375 44.539062 315.378906 45.042969 C 316.324219 45.546875 317.238281 46.097656 318.128906 46.691406 C 319.019531 47.285156 319.875 47.921875 320.703125 48.601562 C 321.53125 49.28125 322.320312 50 323.078125 50.753906 C 323.835938 51.511719 324.550781 52.304688 325.230469 53.132812 C 325.910156 53.957031 326.546875 54.816406 327.140625 55.707031 C 327.734375 56.597656 328.285156 57.511719 328.789062 58.457031 C 329.292969 59.402344 329.75 60.367188 330.160156 61.355469 C 330.566406 62.34375 330.929688 63.351562 331.238281 64.375 C 331.550781 65.398438 331.808594 66.4375 332.015625 67.484375 C 332.226562 68.535156 332.382812 69.59375 332.488281 70.65625 C 332.59375 71.722656 332.644531 72.789062 332.644531 73.859375 C 332.644531 74.929688 332.59375 75.996094 332.488281 77.0625 C 332.382812 78.128906 332.226562 79.183594 332.015625 80.234375 C 331.808594 81.285156 331.550781 82.320312 331.238281 83.34375 C 330.929688 84.367188 330.566406 85.375 330.160156 86.363281 C 329.75 87.351562 329.292969 88.320312 328.789062 89.261719 C 328.285156 90.207031 327.734375 91.121094 327.140625 92.011719 C 326.546875 92.902344 325.910156 93.761719 325.230469 94.589844 C 324.550781 95.414062 323.835938 96.207031 323.078125 96.964844 C 322.320312 97.71875 321.53125 98.4375 320.703125 99.117188 C 319.875 99.796875 319.019531 100.433594 318.128906 101.027344 C 317.238281 101.621094 316.324219 102.171875 315.378906 102.675781 C 314.4375 103.179688 313.46875 103.636719 312.480469 104.046875 C 311.492188 104.457031 310.488281 104.816406 309.464844 105.125 C 308.441406 105.4375 307.402344 105.695312 306.355469 105.90625 C 305.304688 106.113281 304.246094 106.273438 303.183594 106.375 C 302.117188 106.480469 301.050781 106.535156 299.980469 106.535156 Z M 73.160156 54.035156 C 72.507812 54.035156 71.863281 54.066406 71.214844 54.128906 C 70.570312 54.195312 69.929688 54.289062 69.292969 54.417969 C 68.65625 54.542969 68.027344 54.699219 67.40625 54.890625 C 66.785156 55.078125 66.175781 55.296875 65.578125 55.546875 C 64.976562 55.792969 64.390625 56.070312 63.820312 56.378906 C 63.246094 56.683594 62.691406 57.015625 62.152344 57.378906 C 61.613281 57.738281 61.09375 58.125 60.589844 58.539062 C 60.089844 58.949219 59.609375 59.386719 59.148438 59.84375 C 58.691406 60.304688 58.257812 60.785156 57.84375 61.285156 C 57.433594 61.789062 57.046875 62.308594 56.6875 62.847656 C 56.328125 63.386719 55.992188 63.945312 55.6875 64.515625 C 55.382812 65.089844 55.105469 65.675781 54.855469 66.273438 C 54.609375 66.875 54.390625 67.484375 54.203125 68.105469 C 54.011719 68.726562 53.855469 69.355469 53.730469 69.992188 C 53.601562 70.628906 53.507812 71.269531 53.445312 71.917969 C 53.378906 72.5625 53.347656 73.210938 53.347656 73.859375 C 53.347656 74.507812 53.378906 75.15625 53.445312 75.800781 C 53.507812 76.449219 53.601562 77.089844 53.730469 77.726562 C 53.855469 78.363281 54.011719 78.992188 54.203125 79.613281 C 54.390625 80.234375 54.609375 80.84375 54.855469 81.445312 C 55.105469 82.042969 55.382812 82.628906 55.6875 83.203125 C 55.992188 83.777344 56.328125 84.332031 56.6875 84.871094 C 57.046875 85.410156 57.433594 85.933594 57.84375 86.433594 C 58.257812 86.9375 58.691406 87.417969 59.148438 87.875 C 59.609375 88.335938 60.089844 88.769531 60.589844 89.183594 C 61.09375 89.59375 61.613281 89.980469 62.152344 90.339844 C 62.691406 90.703125 63.246094 91.035156 63.820312 91.339844 C 64.390625 91.648438 64.976562 91.925781 65.578125 92.171875 C 66.175781 92.421875 66.785156 92.640625 67.40625 92.828125 C 68.027344 93.019531 68.65625 93.175781 69.292969 93.304688 C 69.929688 93.429688 70.570312 93.527344 71.214844 93.589844 C 71.863281 93.652344 72.507812 93.683594 73.160156 93.6875 L 299.980469 93.6875 C 300.628906 93.6875 301.277344 93.652344 301.925781 93.589844 C 302.570312 93.527344 303.210938 93.429688 303.847656 93.304688 C 304.484375 93.179688 305.113281 93.019531 305.734375 92.832031 C 306.355469 92.644531 306.964844 92.425781 307.566406 92.175781 C 308.164062 91.929688 308.753906 91.652344 309.324219 91.34375 C 309.898438 91.039062 310.453125 90.707031 310.992188 90.34375 C 311.53125 89.984375 312.054688 89.597656 312.554688 89.183594 C 313.058594 88.773438 313.539062 88.339844 313.996094 87.878906 C 314.457031 87.417969 314.890625 86.9375 315.300781 86.4375 C 315.714844 85.933594 316.101562 85.414062 316.460938 84.875 C 316.820312 84.335938 317.15625 83.777344 317.460938 83.207031 C 317.765625 82.632812 318.042969 82.046875 318.292969 81.445312 C 318.539062 80.847656 318.757812 80.234375 318.949219 79.613281 C 319.136719 78.992188 319.292969 78.363281 319.421875 77.726562 C 319.546875 77.089844 319.640625 76.449219 319.707031 75.804688 C 319.769531 75.15625 319.800781 74.507812 319.800781 73.859375 C 319.800781 73.210938 319.769531 72.5625 319.707031 71.917969 C 319.640625 71.269531 319.546875 70.628906 319.421875 69.992188 C 319.292969 69.355469 319.136719 68.726562 318.949219 68.105469 C 318.757812 67.484375 318.539062 66.871094 318.292969 66.273438 C 318.042969 65.671875 317.765625 65.085938 317.460938 64.515625 C 317.15625 63.941406 316.820312 63.386719 316.460938 62.84375 C 316.101562 62.304688 315.714844 61.785156 315.300781 61.28125 C 314.890625 60.78125 314.457031 60.300781 313.996094 59.839844 C 313.539062 59.382812 313.058594 58.945312 312.554688 58.535156 C 312.054688 58.121094 311.53125 57.734375 310.992188 57.375 C 310.453125 57.015625 309.898438 56.679688 309.324219 56.375 C 308.753906 56.070312 308.164062 55.792969 307.566406 55.542969 C 306.964844 55.292969 306.355469 55.074219 305.734375 54.886719 C 305.113281 54.699219 304.484375 54.542969 303.847656 54.414062 C 303.210938 54.289062 302.570312 54.191406 301.925781 54.128906 C 301.277344 54.066406 300.628906 54.035156 299.980469 54.035156 Z M 73.160156 54.035156 "/></g><g clip-rule="nonzero" clip-path="url(#6a63245d43)"><path style="fill:none;stroke-width:1;stroke-linecap:butt;stroke-linejoin:miter;stroke:#000000;stroke-opacity:1;stroke-miterlimit:10;" d="M 397.278653 155.171787 L 114.721883 155.171787 C 113.388563 155.171787 112.060109 155.103682 110.731655 154.972339 C 109.403201 154.84586 108.089346 154.646412 106.780356 154.388589 C 105.476233 154.125901 104.181842 153.804839 102.906916 153.415672 C 101.63199 153.03137 100.381394 152.583828 99.150263 152.073047 C 97.919132 151.562266 96.712331 150.993109 95.539594 150.365578 C 94.36199 149.738047 93.223315 149.052141 92.113837 148.312724 C 91.004359 147.573307 89.938677 146.78038 88.907057 145.933943 C 87.875437 145.087505 86.892479 144.192422 85.948449 143.253557 C 85.00442 142.309828 84.113918 141.322317 83.267211 140.291026 C 82.420504 139.264599 81.627325 138.19439 80.887673 137.085265 C 80.148021 135.97614 79.461896 134.837828 78.834165 133.660598 C 78.206434 132.488234 77.637097 131.281817 77.126153 130.051077 C 76.61521 128.820338 76.167525 127.565275 75.783101 126.290754 C 75.393811 125.016233 75.072646 123.727119 74.809875 122.418546 C 74.55197 121.109973 74.357325 119.796535 74.225939 118.468504 C 74.094554 117.140473 74.031294 115.812441 74.031294 114.479545 C 74.031294 113.14665 74.094554 111.818618 74.225939 110.490587 C 74.357325 109.16742 74.55197 107.849118 74.809875 106.540545 C 75.072646 105.236837 75.393811 103.942858 75.783101 102.668337 C 76.167525 101.393816 76.61521 100.138753 77.126153 98.908014 C 77.637097 97.677274 78.206434 96.475722 78.834165 95.298493 C 79.461896 94.121263 80.148021 92.982951 80.887673 91.873826 C 81.627325 90.764701 82.420504 89.694492 83.267211 88.668065 C 84.113918 87.636774 85.00442 86.649263 85.948449 85.705534 C 86.892479 84.766669 87.875437 83.871586 88.907057 83.025148 C 89.938677 82.178711 91.004359 81.385784 92.113837 80.646367 C 93.223315 79.90695 94.36199 79.221044 95.539594 78.593513 C 96.712331 77.965982 97.919132 77.396825 99.150263 76.886044 C 100.381394 76.375263 101.63199 75.927721 102.906916 75.543419 C 104.181842 75.154252 105.476233 74.83319 106.780356 74.570502 C 108.089346 74.312679 109.403201 74.118096 110.731655 73.986752 C 112.060109 73.855408 113.388563 73.792169 114.721883 73.792169 L 397.278653 73.792169 C 398.611973 73.792169 399.940427 73.855408 401.268881 73.986752 C 402.592468 74.118096 403.91119 74.312679 405.220179 74.570502 C 406.524302 74.83319 407.818693 75.154252 409.09362 75.543419 C 410.368546 75.927721 411.619142 76.375263 412.850273 76.886044 C 414.081404 77.396825 415.288205 77.965982 416.460942 78.593513 C 417.638546 79.221044 418.777221 79.90695 419.886699 80.646367 C 420.996176 81.385784 422.061859 82.178711 423.093479 83.025148 C 424.125099 83.871586 425.108057 84.766669 426.052087 85.705534 C 426.996116 86.649263 427.886618 87.636774 428.733325 88.668065 C 429.580032 89.694492 430.373211 90.764701 431.112863 91.873826 C 431.852515 92.982951 432.538639 94.121263 433.16637 95.298493 C 433.794101 96.475722 434.363439 97.677274 434.874382 98.908014 C 435.38046 100.138753 435.83301 101.393816 436.217435 102.668337 C 436.606725 103.942858 436.92789 105.236837 437.185795 106.540545 C 437.448566 107.849118 437.643211 109.16742 437.774597 110.490587 C 437.905982 111.818618 437.969242 113.14665 437.969242 114.479545 C 437.969242 115.812441 437.905982 117.140473 437.774597 118.468504 C 437.643211 119.796535 437.448566 121.109973 437.185795 122.418546 C 436.92789 123.727119 436.606725 125.016233 436.217435 126.290754 C 435.83301 127.565275 435.38046 128.820338 434.874382 130.051077 C 434.363439 131.281817 433.794101 132.488234 433.16637 133.660598 C 432.538639 134.837828 431.852515 135.97614 431.112863 137.085265 C 430.373211 138.19439 429.580032 139.264599 428.733325 140.29589 C 427.886618 141.322317 426.996116 142.309828 426.052087 143.253557 C 425.108057 144.192422 424.125099 145.087505 423.093479 145.933943 C 422.061859 146.78038 420.996176 147.573307 419.886699 148.312724 C 418.777221 149.052141 417.638546 149.738047 416.460942 150.365578 C 415.288205 150.993109 414.081404 151.562266 412.850273 152.073047 C 411.619142 152.583828 410.368546 153.03137 409.09362 153.415672 C 407.818693 153.804839 406.524302 154.125901 405.220179 154.388589 C 403.91119 154.646412 402.592468 154.84586 401.268881 154.972339 C 399.940427 155.103682 398.611973 155.171787 397.278653 155.171787 Z M 114.721883 89.791784 C 113.909239 89.791784 113.106327 89.830701 112.298549 89.908534 C 111.495638 89.991232 110.697592 90.107982 109.904413 90.268513 C 109.111233 90.42418 108.327786 90.618763 107.554071 90.857128 C 106.780356 91.090628 106.02124 91.363045 105.276722 91.674378 C 104.527338 91.980847 103.797418 92.326232 103.086963 92.710534 C 102.371642 93.089972 101.680651 93.503461 101.009125 93.955868 C 100.337599 94.403409 99.690403 94.885003 99.062673 95.400649 C 98.439808 95.91143 97.841274 96.456264 97.26707 97.02542 C 96.697733 97.599441 96.157592 98.197784 95.641782 98.820451 C 95.130839 99.447982 94.649092 100.094972 94.201407 100.766285 C 93.753723 101.437597 93.335236 102.133233 92.955678 102.843462 C 92.57612 103.558555 92.230624 104.288243 91.919192 105.032524 C 91.612626 105.78167 91.340122 106.540545 91.106548 107.314014 C 90.868108 108.087483 90.673462 108.870681 90.517746 109.663608 C 90.357164 110.456535 90.240377 111.254327 90.162519 112.061847 C 90.079794 112.864504 90.040865 113.672025 90.040865 114.479545 C 90.040865 115.287066 90.079794 116.094587 90.162519 116.897243 C 90.240377 117.704764 90.357164 118.502556 90.517746 119.295483 C 90.673462 120.08841 90.868108 120.871608 91.106548 121.645077 C 91.340122 122.418546 91.612626 123.177421 91.919192 123.926567 C 92.230624 124.670848 92.57612 125.400535 92.955678 126.115629 C 93.335236 126.830723 93.753723 127.521494 94.201407 128.192806 C 94.649092 128.864119 95.130839 129.515973 95.641782 130.13864 C 96.157592 130.766171 96.697733 131.364515 97.26707 131.933671 C 97.841274 132.507692 98.439808 133.047661 99.062673 133.563307 C 99.690403 134.074088 100.337599 134.555682 101.009125 135.003223 C 101.680651 135.45563 102.371642 135.869119 103.086963 136.248557 C 103.797418 136.632859 104.527338 136.978244 105.276722 137.284713 C 106.02124 137.596046 106.780356 137.868463 107.554071 138.101963 C 108.327786 138.340328 109.111233 138.534911 109.904413 138.695442 C 110.697592 138.851109 111.495638 138.972724 112.298549 139.050557 C 113.106327 139.12839 113.909239 139.167307 114.721883 139.172171 L 397.278653 139.172171 C 398.086431 139.172171 398.894209 139.12839 399.701987 139.050557 C 400.504898 138.972724 401.302944 138.851109 402.096123 138.695442 C 402.889302 138.539776 403.67275 138.340328 404.446464 138.106828 C 405.220179 137.873328 405.979296 137.600911 406.72868 137.289578 C 407.473198 136.983109 408.207984 136.637723 408.918439 136.253421 C 409.63376 135.873984 410.324751 135.460494 410.996277 135.008088 C 411.667803 134.560546 412.319865 134.078953 412.942729 133.563307 C 413.57046 133.052525 414.168994 132.512557 414.738332 131.938536 C 415.312535 131.364515 415.852676 130.766171 416.36362 130.143504 C 416.879429 129.515973 417.361176 128.868984 417.808861 128.197671 C 418.256545 127.526358 418.675032 126.830723 419.05459 126.120494 C 419.434148 125.4054 419.779644 124.675713 420.091076 123.926567 C 420.397642 123.182285 420.670146 122.418546 420.908586 121.645077 C 421.14216 120.871608 421.336806 120.08841 421.497388 119.295483 C 421.653104 118.502556 421.769891 117.704764 421.852615 116.902108 C 421.930474 116.094587 421.969403 115.287066 421.969403 114.479545 C 421.969403 113.672025 421.930474 112.864504 421.852615 112.061847 C 421.769891 111.254327 421.653104 110.456535 421.497388 109.663608 C 421.336806 108.870681 421.14216 108.087483 420.908586 107.314014 C 420.670146 106.540545 420.397642 105.776806 420.091076 105.032524 C 419.779644 104.283378 419.434148 103.553691 419.05459 102.843462 C 418.675032 102.128368 418.256545 101.437597 417.808861 100.76142 C 417.361176 100.090107 416.879429 99.443118 416.36362 98.815587 C 415.852676 98.19292 415.312535 97.594576 414.738332 97.020555 C 414.168994 96.451399 413.57046 95.906566 412.942729 95.395784 C 412.319865 94.880138 411.667803 94.398545 410.996277 93.951003 C 410.324751 93.503461 409.63376 93.085107 408.918439 92.70567 C 408.207984 92.326232 407.473198 91.980847 406.72868 91.669513 C 405.979296 91.35818 405.220179 91.085763 404.446464 90.852263 C 403.67275 90.618763 402.889302 90.42418 402.096123 90.263649 C 401.302944 90.107982 400.504898 89.986367 399.701987 89.908534 C 398.894209 89.830701 398.086431 89.791784 397.278653 89.791784 Z M 114.721883 89.791784 " transform="matrix(0.802742,0,0,0.802998,-18.931968,-18.067451)"/></g><path style="fill-rule:nonzero;fill:#000000;fill-opacity:1;stroke-width:1;stroke-linecap:butt;stroke-linejoin:miter;stroke:#000000;stroke-opacity:1;stroke-miterlimit:10;" d="M 311.221124 89.791784 L 200.779412 89.791784 C 200.25387 89.791784 199.733194 89.738274 199.217384 89.636117 C 198.70644 89.533961 198.205228 89.383159 197.718615 89.178847 C 197.232002 88.979399 196.774586 88.731305 196.336634 88.43943 C 195.898682 88.147555 195.494793 87.816763 195.124967 87.447055 C 194.750275 87.077346 194.419378 86.673586 194.12741 86.235774 C 193.835443 85.797961 193.592136 85.335826 193.387759 84.849367 C 193.188247 84.367773 193.037397 83.866721 192.935208 83.351076 C 192.83302 82.83543 192.779492 82.314919 192.779492 81.789544 L 192.779492 57.461762 C 192.779492 56.333179 192.837886 55.204595 192.949807 54.085741 C 193.061728 52.962022 193.227176 51.848033 193.451018 50.738908 C 193.669994 49.634647 193.942497 48.540116 194.273394 47.460178 C 194.599425 46.380241 194.978983 45.319762 195.412069 44.278741 C 195.845155 43.23772 196.326902 42.216157 196.862176 41.223782 C 197.392584 40.226543 197.971654 39.263355 198.599385 38.32449 C 199.227116 37.385626 199.898642 36.480813 200.613963 35.610053 C 201.329285 34.739292 202.088401 33.902584 202.886446 33.104792 C 203.684492 32.307001 204.5166 31.548126 205.387638 30.833032 C 206.263542 30.117938 207.168642 29.446625 208.102939 28.819094 C 209.042102 28.191563 210.010462 27.612678 211.003153 27.082438 C 212.00071 26.547334 213.017732 26.06574 214.059084 25.632792 C 215.100436 25.199844 216.161252 24.820407 217.241533 24.494479 C 218.321814 24.163688 219.411828 23.891271 220.521306 23.6675 C 221.625918 23.448594 222.740262 23.283198 223.864338 23.171313 C 224.988414 23.059427 226.11249 23.001052 227.241433 23.001052 L 284.759103 23.001052 C 285.888045 23.001052 287.012122 23.059427 288.136198 23.171313 C 289.260274 23.283198 290.374618 23.448594 291.47923 23.6675 C 292.588708 23.891271 293.678721 24.163688 294.759002 24.494479 C 295.839284 24.820407 296.9001 25.199844 297.941452 25.632792 C 298.982804 26.06574 299.999826 26.547334 300.997383 27.082438 C 301.990073 27.612678 302.958433 28.191563 303.897597 28.819094 C 304.831894 29.446625 305.736994 30.117938 306.608032 30.833032 C 307.483935 31.548126 308.316044 32.307001 309.114089 33.104792 C 309.912135 33.902584 310.671251 34.739292 311.386573 35.610053 C 312.101894 36.480813 312.77342 37.385626 313.401151 38.32449 C 314.028882 39.263355 314.607951 40.226543 315.13836 41.223782 C 315.673634 42.216157 316.155381 43.23772 316.588467 44.278741 C 317.016686 45.319762 317.401111 46.380241 317.727141 47.460178 C 318.053172 48.540116 318.330542 49.634647 318.549518 50.738908 C 318.77336 51.848033 318.938808 52.962022 319.050729 54.085741 C 319.16265 55.204595 319.221044 56.333179 319.221044 57.461762 L 319.221044 81.789544 C 319.221044 82.314919 319.167516 82.83543 319.065327 83.351076 C 318.963139 83.866721 318.812289 84.367773 318.612777 84.849367 C 318.4084 85.335826 318.165093 85.797961 317.873125 86.235774 C 317.581157 86.673586 317.250261 87.077346 316.875568 87.447055 C 316.505742 87.816763 316.101854 88.147555 315.663902 88.43943 C 315.22595 88.731305 314.768534 88.979399 314.281921 89.178847 C 313.795307 89.383159 313.294096 89.533961 312.783152 89.636117 C 312.267342 89.738274 311.746666 89.791784 311.221124 89.791784 Z M 208.779331 73.792169 L 303.221204 73.792169 L 303.221204 57.461762 C 303.216338 56.250481 303.099551 55.048929 302.861111 53.86197 C 302.62267 52.670147 302.272309 51.517241 301.810026 50.398387 C 301.342878 49.279533 300.778407 48.214189 300.102014 47.20722 C 299.430488 46.200251 298.666506 45.271116 297.8052 44.414949 C 296.948761 43.553918 296.01933 42.790178 295.012041 42.118866 C 294.004752 41.442688 292.939069 40.873532 291.819859 40.411397 C 290.700649 39.944397 289.547376 39.594147 288.36004 39.355782 C 287.172704 39.122282 285.97077 39.000668 284.759103 39.000668 L 227.241433 39.000668 C 226.029766 39.000668 224.827832 39.122282 223.640496 39.355782 C 222.45316 39.594147 221.299887 39.944397 220.180677 40.411397 C 219.061466 40.873532 217.995784 41.442688 216.988495 42.118866 C 215.981205 42.790178 215.051774 43.553918 214.190469 44.414949 C 213.33403 45.271116 212.570047 46.200251 211.898521 47.20722 C 211.222129 48.214189 210.652792 49.279533 210.190509 50.398387 C 209.728227 51.517241 209.372999 52.670147 209.139425 53.86197 C 208.900985 55.048929 208.779331 56.250481 208.779331 57.461762 Z M 208.779331 73.792169 " transform="matrix(0.802742,0,0,0.802998,-18.931968,-18.067451)"/></g></svg>