<svg xmlns="http://www.w3.org/2000/svg" xmlns:xlink="http://www.w3.org/1999/xlink" width="500" zoomAndPan="magnify" viewBox="0 0 375 374.999991" height="500" preserveAspectRatio="xMidYMid meet" version="1.2"><g id="c0a9804ed6"><path style=" stroke:none;fill-rule:nonzero;fill:#000000;fill-opacity:1;" d="M 312.5 0 L 62.5 0 C 28.039062 0 0 28.039062 0 62.5 L 0 312.5 C 0 346.960938 28.039062 375 62.5 375 L 312.5 375 C 346.960938 375 375 346.960938 375 312.5 L 375 62.5 C 375 28.039062 346.960938 0 312.5 0 Z M 350 312.5 C 350 333.179688 333.179688 350 312.5 350 L 62.5 350 C 41.820312 350 25 333.179688 25 312.5 L 25 62.5 C 25 41.820312 41.820312 25 62.5 25 L 312.5 25 C 333.179688 25 350 41.820312 350 62.5 Z M 350 312.5 "/><path style=" stroke:none;fill-rule:nonzero;fill:#000000;fill-opacity:1;" d="M 252.90625 175 L 200 175 L 200 122.09375 C 200 115.1875 194.410156 109.59375 187.5 109.59375 C 180.589844 109.59375 175 115.183594 175 122.09375 L 175 175 L 122.09375 175 C 115.1875 175 109.59375 180.589844 109.59375 187.5 C 109.59375 194.410156 115.183594 200 122.09375 200 L 175 200 L 175 252.90625 C 175 259.8125 180.589844 265.40625 187.5 265.40625 C 194.410156 265.40625 200 259.816406 200 252.90625 L 200 200 L 252.90625 200 C 259.8125 200 265.40625 194.410156 265.40625 187.5 C 265.40625 180.589844 259.8125 175 252.90625 175 Z M 252.90625 175 "/></g></svg>