<svg xmlns="http://www.w3.org/2000/svg" xmlns:xlink="http://www.w3.org/1999/xlink" width="500" zoomAndPan="magnify" viewBox="0 0 375 374.999991" height="500" preserveAspectRatio="xMidYMid meet" version="1.2"><defs><clipPath id="689216d485"><path d="M 18.75 18 L 355 18 L 355 351.75 L 18.75 351.75 Z M 18.75 18 "/></clipPath><clipPath id="081171498c"><path d="M 60 18 L 313.5 18 C 336.28125 18 354.75 36.46875 354.75 59.25 L 354.75 310.5 C 354.75 333.28125 336.28125 351.75 313.5 351.75 L 60 351.75 C 37.21875 351.75 18.75 333.28125 18.75 310.5 L 18.75 59.25 C 18.75 36.46875 37.21875 18 60 18 Z M 60 18 "/></clipPath></defs><g id="1bb0968ff5"><g clip-rule="nonzero" clip-path="url(#689216d485)"><g clip-rule="nonzero" clip-path="url(#081171498c)"><path style=" stroke:none;fill-rule:nonzero;fill:#000000;fill-opacity:1;" d="M 18.75 18 L 355.105469 18 L 355.105469 351.75 L 18.75 351.75 Z M 18.75 18 "/></g></g><path style=" stroke:none;fill-rule:nonzero;fill:#f2ece6;fill-opacity:1;" d="M 312.5 0 L 62.5 0 C 28.039062 0 0 28.039062 0 62.5 L 0 312.5 C 0 346.960938 28.039062 375 62.5 375 L 312.5 375 C 346.960938 375 375 346.960938 375 312.5 L 375 62.5 C 375 28.039062 346.960938 0 312.5 0 Z M 350 312.5 C 350 333.179688 333.179688 350 312.5 350 L 62.5 350 C 41.820312 350 25 333.179688 25 312.5 L 25 62.5 C 25 41.820312 41.820312 25 62.5 25 L 312.5 25 C 333.179688 25 350 41.820312 350 62.5 Z M 350 312.5 "/><path style=" stroke:none;fill-rule:nonzero;fill:#f2ece6;fill-opacity:1;" d="M 252.90625 175 L 200 175 L 200 122.09375 C 200 115.1875 194.410156 109.59375 187.5 109.59375 C 180.589844 109.59375 175 115.183594 175 122.09375 L 175 175 L 122.09375 175 C 115.1875 175 109.59375 180.589844 109.59375 187.5 C 109.59375 194.410156 115.183594 200 122.09375 200 L 175 200 L 175 252.90625 C 175 259.8125 180.589844 265.40625 187.5 265.40625 C 194.410156 265.40625 200 259.816406 200 252.90625 L 200 200 L 252.90625 200 C 259.8125 200 265.40625 194.410156 265.40625 187.5 C 265.40625 180.589844 259.8125 175 252.90625 175 Z M 252.90625 175 "/></g></svg>