<svg xmlns="http://www.w3.org/2000/svg" xmlns:xlink="http://www.w3.org/1999/xlink" width="500" zoomAndPan="magnify" viewBox="0 0 375 374.999991" height="500" preserveAspectRatio="xMidYMid meet" version="1.2"><g id="8a0c7e8cbd"><path style=" stroke:none;fill-rule:nonzero;fill:#000000;fill-opacity:1;" d="M 25.289062 186.628906 C 25.289062 193.851562 19.429688 199.710938 12.210938 199.710938 C 4.988281 199.710938 -0.871094 193.851562 -0.871094 186.628906 C -0.871094 83.238281 83.238281 -0.871094 186.628906 -0.871094 C 234.074219 -0.871094 278.730469 16.988281 313.082031 48.515625 L 313.082031 12.210938 C 313.082031 4.988281 318.941406 -0.871094 326.164062 -0.871094 C 333.382812 -0.871094 339.246094 4.988281 339.246094 12.210938 L 339.246094 81.976562 C 339.246094 89.199219 333.382812 95.058594 326.164062 95.058594 L 256.394531 95.058594 C 249.171875 95.058594 243.3125 89.199219 243.3125 81.976562 C 243.3125 74.753906 249.171875 68.894531 256.394531 68.894531 L 296.683594 68.894531 C 266.96875 41.054688 228.015625 25.289062 186.628906 25.289062 C 97.664062 25.289062 25.289062 97.664062 25.289062 186.628906 Z M 361.046875 173.546875 C 353.824219 173.546875 347.964844 179.40625 347.964844 186.628906 C 347.964844 275.589844 275.589844 347.964844 186.628906 347.964844 C 145.238281 347.964844 106.285156 332.199219 76.574219 304.359375 L 116.859375 304.359375 C 124.082031 304.359375 129.941406 298.5 129.941406 291.277344 C 129.941406 284.058594 124.082031 278.199219 116.859375 278.199219 L 47.09375 278.199219 C 39.871094 278.199219 34.011719 284.058594 34.011719 291.277344 L 34.011719 361.046875 C 34.011719 368.269531 39.871094 374.128906 47.09375 374.128906 C 54.316406 374.128906 60.175781 368.269531 60.175781 361.046875 L 60.175781 324.742188 C 94.523438 356.265625 139.183594 374.128906 186.628906 374.128906 C 290.019531 374.128906 374.128906 290.019531 374.128906 186.628906 C 374.128906 179.40625 368.269531 173.546875 361.046875 173.546875 Z M 361.046875 173.546875 "/></g></svg>